<svg width="15" height="16" viewBox="0 0 15 16" fill="none" xmlns="http://www.w3.org/2000/svg">
<g clip-path="url(#clip0_7_83)">
<path d="M10.9344 1.39379C11.1188 0.965664 10.9813 0.465664 10.6031 0.190664C10.225 -0.0843364 9.70939 -0.0593364 9.35626 0.246914L1.35626 7.24691C1.04376 7.52191 0.931264 7.96254 1.07814 8.35004C1.22501 8.73754 1.60001 9.00004 2.01564 9.00004H5.50001L3.09689 14.6063C2.91251 15.0344 3.05001 15.5344 3.42814 15.8094C3.80626 16.0844 4.32189 16.0594 4.67501 15.7532L12.675 8.75316C12.9875 8.47816 13.1 8.03754 12.9531 7.65004C12.8063 7.26254 12.4344 7.00316 12.0156 7.00316H8.53126L10.9344 1.39379Z" fill="white"/>
</g>
<defs>
<clipPath id="clip0_7_83">
<path d="M0.015625 0H14.0156V16H0.015625V0Z" fill="white"/>
</clipPath>
</defs>
</svg>
