<svg width="19" height="16" viewBox="0 0 19 16" fill="none" xmlns="http://www.w3.org/2000/svg">
<g filter="url(#filter0_d_49_90)">
<path d="M10.3406 0.5625C10.175 0.21875 9.825 0 9.44063 0C9.05625 0 8.70937 0.21875 8.54062 0.5625L6.53125 4.69688L2.04375 5.35938C1.66875 5.41562 1.35625 5.67812 1.24063 6.0375C1.125 6.39687 1.21875 6.79375 1.4875 7.05937L4.74375 10.2812L3.975 14.8344C3.9125 15.2094 4.06875 15.5906 4.37812 15.8125C4.6875 16.0344 5.09687 16.0625 5.43437 15.8844L9.44375 13.7437L13.4531 15.8844C13.7906 16.0625 14.2 16.0375 14.5094 15.8125C14.8187 15.5875 14.975 15.2094 14.9125 14.8344L14.1406 10.2812L17.3969 7.05937C17.6656 6.79375 17.7625 6.39687 17.6437 6.0375C17.525 5.67812 17.2156 5.41562 16.8406 5.35938L12.35 4.69688L10.3406 0.5625Z" fill="#FBBF24"/>
</g>
<defs>
<filter id="filter0_d_49_90" x="-2.80801" y="0" width="24.5018" height="24.0017" filterUnits="userSpaceOnUse" color-interpolation-filters="sRGB">
<feFlood flood-opacity="0" result="BackgroundImageFix"/>
<feColorMatrix in="SourceAlpha" type="matrix" values="0 0 0 0 0 0 0 0 0 0 0 0 0 0 0 0 0 0 127 0" result="hardAlpha"/>
<feOffset dy="4"/>
<feGaussianBlur stdDeviation="2"/>
<feComposite in2="hardAlpha" operator="out"/>
<feColorMatrix type="matrix" values="0 0 0 0 0 0 0 0 0 0 0 0 0 0 0 0 0 0 0.25 0"/>
<feBlend mode="normal" in2="BackgroundImageFix" result="effect1_dropShadow_49_90"/>
<feBlend mode="normal" in="SourceGraphic" in2="effect1_dropShadow_49_90" result="shape"/>
</filter>
</defs>
</svg>
