<svg width="12" height="16" viewBox="0 0 12 16" fill="none" xmlns="http://www.w3.org/2000/svg">
<path d="M9.91875 1.39373C10.1031 0.965603 9.96562 0.465603 9.5875 0.190603C9.20937 -0.0843975 8.69375 -0.0593975 8.34062 0.246853L0.340623 7.24685C0.0281234 7.52185 -0.0843766 7.96248 0.0624984 8.34998C0.209373 8.73748 0.584373 8.99998 0.999998 8.99998H4.48437L2.08125 14.6062C1.89687 15.0344 2.03437 15.5344 2.4125 15.8094C2.79062 16.0844 3.30625 16.0594 3.65937 15.7531L11.6594 8.7531C11.9719 8.4781 12.0844 8.03748 11.9375 7.64998C11.7906 7.26248 11.4187 7.0031 11 7.0031H7.51562L9.91875 1.39373Z" fill="#4B5563"/>
</svg>
