<svg width="17" height="16" viewBox="0 0 17 16" fill="none" xmlns="http://www.w3.org/2000/svg">
<path d="M0.015625 0H16.0156V16H0.015625V0Z" stroke="#E5E7EB"/>
<g clip-path="url(#clip0_7_74)">
<g clip-path="url(#clip1_7_74)">
<path d="M14.5156 8C14.5156 6.27609 13.8308 4.62279 12.6118 3.40381C11.3928 2.18482 9.73953 1.5 8.01562 1.5C6.29172 1.5 4.63842 2.18482 3.41943 3.40381C2.20044 4.62279 1.51563 6.27609 1.51562 8C1.51563 9.72391 2.20044 11.3772 3.41943 12.5962C4.63842 13.8152 6.29172 14.5 8.01562 14.5C9.73953 14.5 11.3928 13.8152 12.6118 12.5962C13.8308 11.3772 14.5156 9.72391 14.5156 8ZM0.015625 8C0.015625 5.87827 0.85848 3.84344 2.35877 2.34315C3.85906 0.842855 5.89389 0 8.01562 0C10.1374 0 12.1722 0.842855 13.6725 2.34315C15.1728 3.84344 16.0156 5.87827 16.0156 8C16.0156 10.1217 15.1728 12.1566 13.6725 13.6569C12.1722 15.1571 10.1374 16 8.01562 16C5.89389 16 3.85906 15.1571 2.35877 13.6569C0.85848 12.1566 0.015625 10.1217 0.015625 8ZM5.32188 5.16563C5.56875 4.46875 6.23125 4 6.97188 4H8.79375C9.88437 4 10.7656 4.88438 10.7656 5.97188C10.7656 6.67813 10.3875 7.33125 9.775 7.68437L8.76562 8.2625C8.75937 8.66875 8.425 9 8.01562 9C7.6 9 7.26562 8.66563 7.26562 8.25V7.82812C7.26562 7.55937 7.40938 7.3125 7.64375 7.17812L9.02812 6.38438C9.175 6.3 9.26562 6.14375 9.26562 5.975C9.26562 5.7125 9.05312 5.50313 8.79375 5.50313H6.97188C6.86563 5.50313 6.77188 5.56875 6.7375 5.66875L6.725 5.70625C6.5875 6.09688 6.15625 6.3 5.76875 6.1625C5.38125 6.025 5.175 5.59375 5.3125 5.20625L5.325 5.16875L5.32188 5.16563ZM7.01562 11C7.01562 10.7348 7.12098 10.4804 7.30852 10.2929C7.49605 10.1054 7.75041 10 8.01562 10C8.28084 10 8.5352 10.1054 8.72273 10.2929C8.91027 10.4804 9.01562 10.7348 9.01562 11C9.01562 11.2652 8.91027 11.5196 8.72273 11.7071C8.5352 11.8946 8.28084 12 8.01562 12C7.75041 12 7.49605 11.8946 7.30852 11.7071C7.12098 11.5196 7.01562 11.2652 7.01562 11Z" fill="#059669"/>
</g>
</g>
<defs>
<clipPath id="clip0_7_74">
<rect width="16" height="16" fill="white" transform="translate(0.015625)"/>
</clipPath>
<clipPath id="clip1_7_74">
<path d="M0.015625 0H16.0156V16H0.015625V0Z" fill="white"/>
</clipPath>
</defs>
</svg>
