<svg width="20" height="16" viewBox="0 0 20 16" fill="none" xmlns="http://www.w3.org/2000/svg">
<path d="M3.81875 0C2.86563 0 2.04688 0.671875 1.85938 1.60625L0.259379 9.60625C0.0125039 10.8437 0.956254 12 2.21875 12H9V14H7C6.44688 14 6 14.4469 6 15C6 15.5531 6.44688 16 7 16H13C13.5531 16 14 15.5531 14 15C14 14.4469 13.5531 14 13 14H11V12H17.7813C19.0438 12 19.9906 10.8469 19.7438 9.60625L18.1438 1.60625C17.9531 0.671875 17.1344 0 16.1813 0H3.81875ZM8.15313 2H11.8469L12.1719 5.25H7.82813L8.15313 2ZM6.32188 5.25H3.16875L3.81875 2H6.64375L6.32188 5.25ZM2.86875 6.75H6.17188L5.84688 10H2.21875L2.86875 6.75ZM7.67813 6.75H12.3219L12.6469 10H7.35313L7.67813 6.75ZM13.8281 6.75H17.1313L17.7813 10H14.1563L13.8281 6.75ZM16.8281 5.25H13.6781L13.3531 2H16.1781L17.1594 1.80313L16.1813 2L16.8313 5.25H16.8281Z" fill="#4B5563"/>
</svg>
